<?xml version="1.0" standalone="no"?><!DOCTYPE svg PUBLIC "-//W3C//DTD SVG 1.1//EN" "http://www.w3.org/Graphics/SVG/1.1/DTD/svg11.dtd"><svg t="1572446021683" class="icon" viewBox="0 0 1024 1024" version="1.1" xmlns="http://www.w3.org/2000/svg" p-id="11402" xmlns:xlink="http://www.w3.org/1999/xlink" width="200" height="200"><defs><style type="text/css"></style></defs><path d="M192 800h707.968a32 32 0 1 1 0 64h-736a32 32 0 0 1-31.872-35.2 31.872 31.872 0 0 1-4.096-15.68V224a32 32 0 0 1 64 0v576z" fill="#cdcdcd" p-id="11403"></path><path d="M310.656 630.656a32 32 0 0 1-45.312-45.312L480 370.752l160 160 201.344-201.408a32 32 0 0 1 45.312 45.312L640 621.248l-160-160-169.344 169.408z" fill="#cdcdcd" p-id="11404"></path></svg>