<?xml version="1.0" standalone="no"?><!DOCTYPE svg PUBLIC "-//W3C//DTD SVG 1.1//EN" "http://www.w3.org/Graphics/SVG/1.1/DTD/svg11.dtd"><svg t="1574155087195" class="icon" viewBox="0 0 1024 1024" version="1.1" xmlns="http://www.w3.org/2000/svg" p-id="3209" xmlns:xlink="http://www.w3.org/1999/xlink" width="200" height="200"><defs><style type="text/css"></style></defs><path d="M175.829333 413.866667v448h669.098667V413.866667H175.786667z m-7.466666-55.466667h684.032c26.496 0 48 21.504 48 48v462.933333c0 26.496-21.504 48-48 48H168.362667a48 48 0 0 1-48-48V406.4c0-26.496 21.504-48 48-48z" p-id="3210"></path><path d="M306.261333 520.533333h200.234667a29.866667 29.866667 0 0 1 0 59.733334H306.261333a29.866667 29.866667 0 0 1 0-59.733334zM306.261333 669.866667h96.256a29.866667 29.866667 0 0 1 0 59.733333H306.261333a29.866667 29.866667 0 0 1 0-59.733333zM246.997333 165.12l-53.888 196.266667h634.538667l-53.888-196.266667H247.04z m-5.717333-55.466667H779.52c21.589333 0 40.533333 14.421333 46.250667 35.285334l67.242666 244.906666a21.333333 21.333333 0 0 1-20.565333 26.965334H148.352a21.333333 21.333333 0 0 1-20.565333-26.965334l67.242666-244.906666a48 48 0 0 1 46.250667-35.328zM733.696 560.213333a28.8 28.8 0 1 1 44.544 36.48l-137.813333 168.192a28.8 28.8 0 0 1-43.093334 1.621334l-76.074666-79.658667a28.8 28.8 0 1 1 41.642666-39.765333l53.589334 56.106666 117.205333-142.976z" p-id="3211"></path></svg>