<?xml version="1.0" standalone="no"?><!DOCTYPE svg PUBLIC "-//W3C//DTD SVG 1.1//EN" "http://www.w3.org/Graphics/SVG/1.1/DTD/svg11.dtd"><svg t="1572443425575" class="icon" viewBox="0 0 1024 1024" version="1.1" xmlns="http://www.w3.org/2000/svg" p-id="6348" xmlns:xlink="http://www.w3.org/1999/xlink" width="200" height="200"><defs><style type="text/css"></style></defs><path d="M728.615385 413.538462c11.815385 31.507692 19.692308 63.015385 19.692307 98.461538 0 129.969231-106.338462 236.307692-236.307692 236.307692-102.4 0-189.046154-63.015385-220.553846-157.538461l-228.430769 63.015384C122.092308 846.769231 299.323077 984.615385 512 984.615385c259.938462 0 472.615385-212.676923 472.615385-472.615385 0-78.769231-19.692308-153.6-51.2-216.615385l-204.8 118.153847zM551.384615 279.630769c51.2 7.876923 98.461538 31.507692 129.969231 70.892308l208.738462-118.153846c-78.769231-106.338462-200.861538-177.230769-338.707693-189.046154v236.307692zM275.692308 515.938462c0-3.938462 0-3.938462 0 0 0-118.153846 86.646154-216.615385 196.923077-236.307693v-236.307692C228.430769 63.015385 39.384615 263.876923 39.384615 512c0 23.630769 3.938462 43.323077 3.938462 63.015385L275.692308 515.938462z" p-id="6349"></path></svg>