<?xml version="1.0" standalone="no"?><!DOCTYPE svg PUBLIC "-//W3C//DTD SVG 1.1//EN" "http://www.w3.org/Graphics/SVG/1.1/DTD/svg11.dtd"><svg t="1572446127999" class="icon" viewBox="0 0 1024 1024" version="1.1" xmlns="http://www.w3.org/2000/svg" p-id="2370" xmlns:xlink="http://www.w3.org/1999/xlink" width="200" height="200"><defs><style type="text/css"></style></defs><path d="M411.014095 1024s-431.664762-99.888762-238.738285-595.651048c0 0 43.812571 55.100952 37.790476 81.603048 0 0 34.328381-125.147429 108.446476-199.899429C382.147048 245.833143 446.805333 65.26781 387.169524 0c0 0 295.350857 65.26781 328.240762 391.655619 0 0 37.790476-104.009143 115.346285-114.273524 0 0-23.844571 57.124571 0 142.848 0 0 244.662857 440.56381-177.005714 589.482667 0 0 126.415238-150.966857-141.653333-410.063238 0 0-63.171048 138.727619-100.961524 187.66019-0.121905 0.121905-105.569524 124.464762-0.121905 236.690286z" p-id="2371"></path></svg>